<?xml version="1.0" encoding="utf-8"?>
<!-- Generator: Adobe Adobe Illustrator 29.2.0, SVG Export Plug-In . SVG Version: 6.00 Build 0)  -->
<svg version="1.1" xmlns="http://www.w3.org/2000/svg" xmlns:xlink="http://www.w3.org/1999/xlink" x="0px" y="0px" width="720px"
	 height="720px" viewBox="0 0 720 720" style="enable-background:new 0 0 720 720;" xml:space="preserve">
<style type="text/css">
	.st0{fill:#F6DDD6;}
	.st1{fill:#EE7057;}
</style>
<g id="Color_de_fondo">
	<rect class="st0" width="720" height="720"/>
</g>
<g id="Diseño">
	<g>
		<g>
			<path class="st1" d="M310.85,442.68c0.59,0.77,0.89,1.73,0.89,2.88c0,1.58-0.61,2.8-1.83,3.67c-1.22,0.86-2.99,1.29-5.32,1.29
				h-9.08v-18.26h8.56c2.16,0,3.82,0.42,4.98,1.26c1.17,0.84,1.75,2,1.75,3.48c0,0.9-0.21,1.71-0.63,2.4
				c-0.42,0.7-0.99,1.23-1.72,1.62C309.45,441.35,310.25,441.91,310.85,442.68z M298.9,434.92v5.03h4.8c1.18,0,2.09-0.21,2.73-0.64
				c0.63-0.43,0.95-1.05,0.95-1.87c0-0.83-0.32-1.46-0.95-1.89c-0.64-0.43-1.54-0.64-2.73-0.64H298.9z M308.32,445.22
				c0-1.76-1.31-2.63-3.94-2.63h-5.48v5.27h5.48C307,447.86,308.32,446.98,308.32,445.22z"/>
			<path class="st1" d="M332.42,446.29h-9.13l-1.8,4.23h-3.5l8.22-18.26h3.34l8.24,18.26h-3.55L332.42,446.29z M331.3,443.63
				l-3.44-7.98l-3.42,7.98H331.3z"/>
			<path class="st1" d="M351.61,442.88l-2.9,2.97v4.67h-3.39v-18.26h3.39v9.36l9.03-9.36h3.81l-7.67,8.16l8.14,10.09h-3.96
				L351.61,442.88z"/>
			<path class="st1" d="M383.26,447.67v2.84h-13.69v-18.26h13.33v2.84h-9.94v4.75h8.82v2.79h-8.82v5.03H383.26z"/>
			<path class="st1" d="M404.2,450.52l-3.73-5.35c-0.16,0.02-0.39,0.03-0.7,0.03h-4.12v5.32h-3.39v-18.26h7.51
				c1.58,0,2.96,0.26,4.13,0.78s2.07,1.27,2.7,2.24c0.63,0.97,0.94,2.13,0.94,3.47c0,1.37-0.33,2.56-1,3.55
				c-0.67,0.99-1.63,1.73-2.88,2.22l4.2,6H404.2z M402.97,436.07c-0.77-0.63-1.89-0.94-3.37-0.94h-3.96v7.28h3.96
				c1.48,0,2.6-0.32,3.37-0.95c0.76-0.63,1.15-1.53,1.15-2.7S403.74,436.69,402.97,436.07z"/>
			<path class="st1" d="M424.15,444.08v6.44h-3.39v-6.39l-7.17-11.87h3.62l5.35,8.89l5.4-8.89h3.34L424.15,444.08z"/>
		</g>
		<g>
			<g>
				<path class="st1" d="M87.69,395.27c0-0.68,0.68-1.02,2.03-1.02h-0.07c0.82-0.05,1.55-0.13,2.18-0.25
					c0.63-0.12,1.17-0.34,1.63-0.65c0.46-0.31,0.81-0.79,1.05-1.42c0.24-0.63,0.36-1.47,0.36-2.54v-39.47
					c0-1.06-0.12-1.92-0.36-2.58c-0.24-0.65-0.59-1.16-1.05-1.52c-0.46-0.36-1-0.6-1.63-0.73c-0.63-0.12-1.36-0.21-2.18-0.25h0.07
					c-1.35,0-2.03-0.34-2.03-1.02c0-0.68,0.68-1.02,2.03-1.02h26.12c2.03,0,4.16,0.21,6.38,0.62c2.22,0.41,4.24,1.1,6.06,2.07
					c1.81,0.97,3.31,2.25,4.5,3.85c1.19,1.6,1.78,3.58,1.78,5.95c0,1.65-0.34,3.11-1.02,4.39c-0.68,1.28-1.57,2.41-2.69,3.37
					c-1.11,0.97-2.41,1.79-3.88,2.47c-1.48,0.68-3.01,1.26-4.61,1.74c2.08,0.43,4,1.03,5.77,1.78c1.77,0.75,3.3,1.69,4.61,2.83
					c1.31,1.14,2.33,2.5,3.08,4.1c0.75,1.6,1.12,3.46,1.12,5.59c0,2.52-0.58,4.7-1.74,6.57c-1.16,1.86-2.68,3.4-4.57,4.61
					c-1.89,1.21-4,2.1-6.35,2.68c-2.35,0.58-4.7,0.87-7.07,0.87h-27.5C88.36,396.28,87.69,395.94,87.69,395.27z M102.49,366.75
					h12.55c1.5,0,2.95-0.31,4.35-0.94c1.4-0.63,2.65-1.48,3.74-2.54c1.09-1.06,1.96-2.31,2.61-3.74c0.65-1.43,0.98-2.96,0.98-4.61
					c0-1.74-0.34-3.24-1.02-4.5c-0.68-1.26-1.57-2.3-2.68-3.12c-1.11-0.82-2.37-1.44-3.77-1.85c-1.4-0.41-2.81-0.62-4.21-0.62
					h-12.55V366.75z M102.49,368.78v20.61c0,1.06,0.12,1.91,0.36,2.54c0.24,0.63,0.59,1.11,1.05,1.45c0.46,0.34,1,0.57,1.63,0.69
					c0.63,0.12,1.33,0.18,2.1,0.18h8.05c1.74,0,3.43-0.29,5.08-0.87c1.64-0.58,3.09-1.41,4.35-2.5c1.26-1.09,2.26-2.42,3.01-3.99
					c0.75-1.57,1.12-3.35,1.12-5.33c0-1.89-0.35-3.62-1.05-5.19c-0.7-1.57-1.66-2.93-2.87-4.06c-1.21-1.14-2.6-2.01-4.17-2.61
					c-1.57-0.6-3.21-0.91-4.9-0.91H102.49z"/>
				<path class="st1" d="M144.14,395.27c0-0.44,0.63-0.77,1.89-1.02c0.97-0.1,1.72-0.41,2.25-0.94c0.53-0.53,0.8-1.5,0.8-2.9v-21.48
					c0-1.5-0.1-2.25-0.29-2.25c-0.29,0-0.77,0.27-1.45,0.8c-0.39,0.24-0.77,0.36-1.16,0.36c-0.39,0-0.77-0.07-1.16-0.22
					c-0.39-0.14-0.61-0.34-0.65-0.58c0-0.05,0.29-0.29,0.87-0.73l7.98-5.59c0.24-0.15,0.65-0.22,1.23-0.22
					c0.68,0,1.22,0.14,1.63,0.44c0.41,0.29,0.62,0.68,0.62,1.16v3.92c0.82-0.82,1.69-1.62,2.61-2.39c0.92-0.77,1.87-1.48,2.87-2.1
					c0.99-0.63,2.03-1.12,3.12-1.49c1.09-0.36,2.21-0.54,3.37-0.54c1.89,0,3.36,0.35,4.43,1.05c1.06,0.7,1.6,1.54,1.6,2.5
					c-0.1,1.06-0.62,1.92-1.56,2.58c-0.94,0.65-2.02,0.98-3.23,0.98c-0.58,0-1.28-0.12-2.1-0.36c-0.82-0.24-1.38-0.65-1.67-1.23
					c-0.58-0.58-1.23-0.87-1.96-0.87c-0.1,0-0.19,0-0.29,0c-0.68,0.05-1.37,0.32-2.07,0.8c-0.7,0.48-1.38,1.05-2.03,1.71
					c-0.65,0.65-1.27,1.32-1.85,2c-0.58,0.68-1.09,1.23-1.52,1.67l0.29-0.07v20.17c0,1.45,0.28,2.43,0.83,2.94
					c0.56,0.51,1.34,0.81,2.36,0.91h-0.07c1.35,0,2.03,0.34,2.03,1.02c0,0.68-0.68,1.02-2.03,1.02h-13.64
					C144.81,396.28,144.14,395.94,144.14,395.27z"/>
				<path class="st1" d="M177.59,378.94c0-2.61,0.44-5.04,1.31-7.29c0.87-2.25,2.12-4.2,3.74-5.84c1.62-1.64,3.59-2.94,5.91-3.88
					s4.96-1.42,7.91-1.42c2.85,0,5.37,0.42,7.55,1.27c2.18,0.85,4,2.03,5.48,3.56c1.48,1.52,2.59,3.31,3.34,5.37
					c0.75,2.06,1.12,4.32,1.12,6.78h-28.44v1.45c0,1.89,0.18,3.81,0.54,5.77c0.36,1.96,0.98,3.75,1.85,5.37
					c0.87,1.62,2.01,2.94,3.41,3.95c1.4,1.02,3.12,1.52,5.15,1.52c1.45,0,2.91-0.26,4.39-0.8c1.47-0.53,2.83-1.27,4.06-2.21
					c1.23-0.94,2.31-2.03,3.23-3.27c0.92-1.23,1.55-2.55,1.89-3.95l3.77,1.09c-1.21,3.29-3.3,5.96-6.28,8.02
					c-2.97,2.05-6.66,3.08-11.06,3.08c-2.9,0-5.53-0.48-7.87-1.45c-2.35-0.97-4.33-2.29-5.95-3.95c-1.62-1.67-2.87-3.63-3.74-5.88
					C178.02,383.98,177.59,381.55,177.59,378.94z M206.39,375.39c0-1.55-0.21-3.09-0.62-4.64c-0.41-1.55-1.02-2.94-1.81-4.17
					c-0.8-1.23-1.83-2.22-3.08-2.97c-1.26-0.75-2.73-1.12-4.43-1.12c-1.69,0-3.17,0.38-4.43,1.12s-2.32,1.73-3.19,2.94
					c-0.87,1.21-1.56,2.59-2.07,4.14c-0.51,1.55-0.86,3.12-1.05,4.72H206.39z"/>
				<path class="st1" d="M220.61,388.74c0-1.6,0.42-3.02,1.27-4.28c0.85-1.26,1.95-2.37,3.3-3.34c1.35-0.97,2.89-1.81,4.61-2.54
					c1.72-0.73,3.46-1.33,5.22-1.81c1.77-0.48,3.47-0.89,5.12-1.23c1.64-0.34,3.07-0.6,4.28-0.8v-5.22c0-2.37-0.5-4.2-1.49-5.48
					c-0.99-1.28-2.53-1.92-4.61-1.92c-1.84,0-3.18,0.15-4.03,0.44c-0.85,0.29-1.4,0.68-1.67,1.16c-0.27,0.48-0.4,0.99-0.4,1.52
					c0,0.15,0.02,0.44,0.07,0.87c0.05,0.44,0.07,1.06,0.07,1.89c0,1.31-0.51,2.29-1.52,2.94c-1.02,0.65-2.08,0.98-3.19,0.98
					c-1.4,0-2.55-0.37-3.45-1.12c-0.9-0.75-1.34-1.68-1.34-2.79c0-0.82,0.27-1.67,0.8-2.54c0.53-0.87,1.38-1.69,2.54-2.47
					c1.16-0.77,2.66-1.4,4.5-1.89c1.84-0.48,4.06-0.73,6.68-0.73c1.69,0,3.41,0.18,5.15,0.54c1.74,0.36,3.31,0.93,4.72,1.71
					c1.4,0.77,2.55,1.79,3.45,3.05c0.89,1.26,1.34,2.76,1.34,4.5v23c0,0.58,0.11,1.21,0.33,1.89c0.22,0.68,0.59,1.02,1.12,1.02v0.58
					c-0.39,0.24-0.88,0.45-1.49,0.62c-0.61,0.17-1.1,0.25-1.49,0.25c-2.03,0-3.48-0.29-4.35-0.87c-0.87-0.58-1.4-1.52-1.6-2.83
					c-1.69,1.26-3.41,2.19-5.15,2.79c-1.74,0.6-3.92,0.91-6.53,0.91c-1.55,0-3.06-0.17-4.53-0.51c-1.48-0.34-2.78-0.86-3.92-1.56
					c-1.14-0.7-2.06-1.61-2.76-2.72C220.96,391.62,220.61,390.29,220.61,388.74z M244.41,390.41v-13.42
					c-1.5,0.19-3.18,0.54-5.04,1.05c-1.86,0.51-3.62,1.22-5.26,2.14c-1.65,0.92-3.01,2.07-4.1,3.45c-1.09,1.38-1.63,3.04-1.63,4.97
					c0,2.08,0.59,3.57,1.78,4.46c1.18,0.9,2.58,1.34,4.17,1.34c2.03,0,3.81-0.3,5.33-0.91
					C241.18,392.88,242.77,391.86,244.41,390.41z"/>
				<path class="st1" d="M276.84,360.15c3.77,0,7.04,1.02,9.8,3.05V348.1c0-1.5-0.1-2.25-0.29-2.25c-0.29,0-0.77,0.27-1.45,0.8
					c-0.39,0.24-0.8,0.36-1.23,0.36c-0.39,0-0.77-0.07-1.16-0.22c-0.39-0.14-0.61-0.34-0.65-0.58c0-0.05,0.29-0.29,0.87-0.73
					l8.05-5.59c0.24-0.15,0.65-0.22,1.23-0.22c0.68,0,1.22,0.15,1.63,0.44s0.62,0.68,0.62,1.16v48.18c0,1.26,0.24,2.12,0.73,2.58
					c0.48,0.46,1.26,0.71,2.32,0.76h-0.07c1.06,0,1.62,0.22,1.67,0.65l0.07,0.22c0,0.19-0.36,0.41-1.09,0.65l-7.98,2.61
					c-0.39,0.1-0.75,0.15-1.09,0.15c-1.45,0-2.18-0.51-2.18-1.52v-0.43c-2.76,2.03-6.02,3.05-9.8,3.05c-2.13,0-4.22-0.4-6.28-1.2
					c-2.06-0.8-3.88-2-5.48-3.59c-1.6-1.6-2.89-3.58-3.88-5.95c-0.99-2.37-1.49-5.13-1.49-8.27s0.5-5.9,1.49-8.27
					c0.99-2.37,2.29-4.35,3.88-5.95c1.6-1.6,3.42-2.79,5.48-3.59C272.62,360.55,274.71,360.15,276.84,360.15z M286.64,389.75v-21.04
					h0.14c-1.11-2.18-2.43-3.79-3.95-4.83s-3.06-1.56-4.61-1.56c-1.35,0-2.67,0.35-3.95,1.05c-1.28,0.7-2.43,1.74-3.45,3.12
					c-1.02,1.38-1.83,3.12-2.43,5.22c-0.61,2.1-0.91,4.58-0.91,7.44c0,2.76,0.3,5.19,0.91,7.29c0.6,2.1,1.42,3.85,2.43,5.22
					c1.02,1.38,2.17,2.42,3.45,3.12c1.28,0.7,2.6,1.05,3.95,1.05c1.5,0,3-0.51,4.5-1.52S285.53,391.78,286.64,389.75z"/>
				<path class="st1" d="M323.72,356.59c0-1.64,0.36-3.17,1.09-4.57c0.73-1.4,1.56-2.64,2.5-3.7c0.94-1.06,1.86-1.95,2.76-2.65
					c0.89-0.7,1.51-1.15,1.85-1.34l0.29-0.22c0.15-0.1,0.33-0.18,0.54-0.25s0.54-0.11,0.98-0.11c1.21,0,1.81,0.22,1.81,0.65
					c0,0.1-0.04,0.19-0.11,0.29c-0.07,0.1-0.38,0.34-0.91,0.73h0.07c-0.34,0.29-0.75,0.71-1.23,1.27c-0.48,0.56-0.94,1.19-1.38,1.89
					c-0.44,0.7-0.81,1.48-1.12,2.32c-0.32,0.85-0.47,1.73-0.47,2.65c0,1.16,0.12,1.81,0.36,1.96c0.19,0.05,0.53,0.16,1.02,0.33
					c0.48,0.17,0.98,0.42,1.49,0.76c0.51,0.34,0.95,0.76,1.34,1.27c0.39,0.51,0.58,1.12,0.58,1.85c0,0.82-0.41,1.56-1.23,2.21
					c-0.82,0.65-1.98,0.98-3.48,0.98c-0.68,0-1.4-0.13-2.18-0.4c-0.77-0.27-1.5-0.66-2.18-1.2c-0.68-0.53-1.25-1.2-1.71-2
					C323.94,358.52,323.72,357.61,323.72,356.59z"/>
				<path class="st1" d="M356,368.93v21.04c0,1.55,0.27,2.62,0.8,3.23c0.53,0.61,1.31,0.96,2.32,1.05c1.26,0.24,1.89,0.58,1.89,1.02
					c0,0.68-0.68,1.02-2.03,1.02h-13.42c-1.35,0-2.03-0.34-2.03-1.02c0-0.48,0.6-0.82,1.81-1.02c1.02-0.1,1.78-0.45,2.29-1.05
					c0.51-0.6,0.76-1.68,0.76-3.23v-21.04c0-1.5-0.1-2.25-0.29-2.25c-0.24,0-0.85,0.36-1.81,1.09h0.15
					c-0.05,0.05-0.36,0.07-0.94,0.07c-0.24,0-0.58-0.07-1.02-0.22c-0.44-0.14-0.7-0.34-0.8-0.58c0.05-0.15,0.36-0.39,0.94-0.73
					h-0.07c1.31-0.92,2.62-1.84,3.95-2.76c1.33-0.92,2.67-1.86,4.03-2.83c0.24-0.15,0.65-0.22,1.23-0.22c0.68,0,1.22,0.14,1.63,0.44
					c0.41,0.29,0.62,0.68,0.62,1.16v3.12c1.79-1.4,3.66-2.56,5.62-3.48c1.96-0.92,4.24-1.38,6.86-1.38c1.64,0,3.17,0.23,4.57,0.69
					c1.4,0.46,2.62,1.15,3.66,2.07c1.04,0.92,1.85,2.02,2.43,3.3c0.58,1.28,0.87,2.77,0.87,4.46v19.08c0,1.55,0.24,2.62,0.72,3.23
					c0.48,0.61,1.23,0.96,2.25,1.05c1.26,0.24,1.89,0.58,1.89,1.02c0,0.68-0.68,1.02-2.03,1.02h-13.42c-1.35,0-2.03-0.34-2.03-1.02
					c0-0.44,0.63-0.77,1.89-1.02c1.02-0.1,1.79-0.45,2.32-1.05c0.53-0.6,0.8-1.68,0.8-3.23v-19.3c0-2.18-0.39-3.88-1.16-5.12
					c-0.77-1.23-2.15-1.85-4.14-1.85c-2.23,0-4.17,0.47-5.84,1.42S357.84,367.33,356,368.93z"/>
				<path class="st1" d="M390.39,361.24c0.34-0.34,0.75-0.77,1.23-1.31c0.48-0.53,0.94-1.14,1.38-1.81
					c0.44-0.68,0.81-1.44,1.12-2.29c0.31-0.85,0.47-1.73,0.47-2.65c0-0.53-0.08-1-0.25-1.42c-0.17-0.41-0.38-0.67-0.62-0.76
					l-0.07-0.07c-0.34-0.14-0.73-0.31-1.16-0.51c-0.44-0.19-0.85-0.45-1.23-0.76c-0.39-0.31-0.73-0.69-1.02-1.12
					c-0.29-0.43-0.44-0.97-0.44-1.6c0-0.82,0.41-1.56,1.23-2.21c0.82-0.65,1.98-0.98,3.48-0.98c0.68,0,1.4,0.13,2.18,0.4
					c0.77,0.27,1.5,0.67,2.18,1.2c0.68,0.53,1.24,1.2,1.71,2c0.46,0.8,0.69,1.71,0.69,2.72c0,1.6-0.35,3.08-1.05,4.46
					c-0.7,1.38-1.51,2.61-2.43,3.7c-0.92,1.09-1.83,1.97-2.72,2.65c-0.9,0.68-1.54,1.14-1.92,1.38l-0.29,0.29
					c-0.15,0.1-0.32,0.18-0.51,0.25c-0.19,0.07-0.56,0.11-1.09,0.11c-1.21,0-1.81-0.22-1.81-0.65c0-0.1,0.04-0.19,0.11-0.29
					c0.07-0.1,0.37-0.34,0.91-0.73H390.39z"/>
				<path class="st1" d="M429.65,383.08c0.1-0.05,0.36-0.07,0.8-0.07c0.77,0,1.28,0.12,1.52,0.36c1.16,1.6,2.39,3.13,3.7,4.61
					c1.31,1.48,2.71,2.76,4.21,3.85c1.5,1.09,3.11,1.96,4.83,2.61c1.72,0.65,3.57,0.98,5.55,0.98c1.74,0,3.36-0.19,4.86-0.58
					c1.5-0.39,2.78-1.02,3.85-1.89c1.06-0.87,1.9-2.02,2.5-3.45c0.6-1.43,0.91-3.18,0.91-5.26c0-2.08-0.41-3.82-1.23-5.22
					c-0.82-1.4-1.92-2.58-3.3-3.52c-1.38-0.94-2.95-1.73-4.72-2.36c-1.77-0.63-3.59-1.23-5.48-1.81c-2.23-0.68-4.44-1.41-6.64-2.21
					c-2.2-0.8-4.17-1.78-5.91-2.94s-3.14-2.6-4.21-4.32c-1.06-1.72-1.6-3.83-1.6-6.35c0-2.27,0.46-4.28,1.38-6.02
					c0.92-1.74,2.14-3.2,3.66-4.39c1.52-1.18,3.29-2.08,5.3-2.68c2.01-0.6,4.12-0.91,6.35-0.91c1.98,0,3.76,0.17,5.33,0.51
					c1.57,0.34,3.18,0.82,4.83,1.45l3.12-1.02c0.29-0.1,0.65-0.14,1.09-0.14c0.44,0,0.93,0.08,1.49,0.25
					c0.55,0.17,0.95,0.54,1.2,1.12c0.68,1.84,1.38,3.69,2.1,5.55c0.73,1.86,1.45,3.74,2.18,5.62l0.15,0.36
					c0,0.05-0.39,0.27-1.16,0.65h0.07c-0.1,0.05-0.36,0.07-0.8,0.07c-0.77,0-1.28-0.12-1.52-0.36c-1.16-1.6-2.39-3.13-3.7-4.61
					c-1.31-1.47-2.71-2.76-4.21-3.84c-1.5-1.09-3.1-1.96-4.79-2.61s-3.51-0.98-5.44-0.98c-1.5,0-2.88,0.16-4.14,0.47
					c-1.26,0.32-2.35,0.83-3.27,1.56s-1.64,1.68-2.18,2.87c-0.53,1.19-0.8,2.67-0.8,4.46c0,2.13,0.42,3.89,1.27,5.3
					c0.85,1.4,1.97,2.59,3.37,3.56c1.4,0.97,3.01,1.78,4.83,2.43c1.81,0.65,3.69,1.27,5.62,1.85c2.22,0.68,4.43,1.39,6.6,2.14
					c2.18,0.75,4.11,1.71,5.8,2.87s3.07,2.58,4.14,4.25c1.06,1.67,1.6,3.74,1.6,6.2c0,2.61-0.47,4.9-1.42,6.86
					c-0.94,1.96-2.24,3.62-3.88,4.97c-1.64,1.35-3.58,2.37-5.8,3.05c-2.23,0.68-4.6,1.02-7.11,1.02h-0.73
					c-1.84,0-3.52-0.15-5.04-0.44s-3.16-0.77-4.9-1.45l-3.12,1.02c-0.29,0.1-0.65,0.15-1.09,0.15c-0.44,0-0.93-0.08-1.49-0.25
					c-0.56-0.17-0.96-0.54-1.2-1.12c-0.68-1.84-1.38-3.69-2.1-5.55c-0.73-1.86-1.45-3.74-2.18-5.62l-0.15-0.36
					c0-0.05,0.39-0.27,1.16-0.65H429.65z"/>
				<path class="st1" d="M504.82,389.83v-20.9c0-1.5-0.1-2.25-0.29-2.25c-0.24,0-0.85,0.36-1.81,1.09h0.14
					c-0.05,0.05-0.39,0.07-1.02,0.07c-0.24,0-0.58-0.07-1.02-0.22c-0.44-0.14-0.7-0.34-0.8-0.58c0.05-0.15,0.36-0.39,0.94-0.73
					h-0.07c1.35-0.92,2.7-1.84,4.03-2.76c1.33-0.92,2.67-1.86,4.03-2.83c0.24-0.15,0.65-0.22,1.23-0.22c0.68,0,1.22,0.14,1.63,0.44
					c0.41,0.29,0.62,0.68,0.62,1.16v27.35c0,3,1.11,4.57,3.34,4.72c1.06,0.24,1.6,0.53,1.6,0.87c0,0.58-0.63,0.87-1.89,0.87h0.07
					c-0.58,0.05-1.19,0.08-1.81,0.11c-0.63,0.03-1.28,0.08-1.96,0.18c-0.68,0.05-1.33,0.08-1.96,0.11
					c-0.63,0.02-1.26,0.06-1.89,0.11h-0.29c-0.82,0-1.5-0.15-2.03-0.44c-0.53-0.29-0.8-0.75-0.8-1.38v-1.45
					c-1.64,1.26-3.5,2.3-5.55,3.12c-2.06,0.82-4.17,1.23-6.35,1.23c-3.48,0-6.18-0.8-8.09-2.39c-1.91-1.6-2.87-3.87-2.87-6.82
					v-19.37c0-1.5-0.1-2.25-0.29-2.25c-0.29,0-0.87,0.36-1.74,1.09h0.14c-0.05,0.05-0.39,0.07-1.02,0.07
					c-0.24,0-0.58-0.07-1.02-0.22c-0.44-0.14-0.7-0.34-0.8-0.58c0.05-0.15,0.36-0.39,0.94-0.73h-0.07l7.98-5.59
					c0.24-0.15,0.65-0.22,1.23-0.22c0.68,0,1.22,0.14,1.63,0.44c0.41,0.29,0.62,0.68,0.62,1.16v24.09c0,1.06,0.05,2.08,0.14,3.05
					c0.1,0.97,0.31,1.83,0.65,2.58c0.34,0.75,0.83,1.34,1.49,1.78s1.51,0.65,2.58,0.65c2.03,0,3.85-0.37,5.44-1.12
					C501.48,392.38,503.12,391.28,504.82,389.83z"/>
				<path class="st1" d="M523.68,400.64c0-2.13,1.09-3.73,3.26-4.79c2.18-1.06,5.01-1.77,8.49-2.1c-2.85-0.29-5.01-0.99-6.46-2.1
					c-1.45-1.11-2.18-2.3-2.18-3.56c0-1.06,0.59-2.05,1.78-2.97c1.18-0.92,2.99-1.57,5.41-1.96c-1.35-0.44-2.64-1.02-3.85-1.74
					s-2.26-1.57-3.16-2.54c-0.9-0.97-1.6-2.03-2.1-3.19c-0.51-1.16-0.76-2.39-0.76-3.7c0-2.03,0.46-3.78,1.38-5.26
					c0.92-1.47,2.13-2.7,3.63-3.66c1.5-0.97,3.2-1.68,5.12-2.14c1.91-0.46,3.83-0.69,5.77-0.69c1.84,0,3.6,0.19,5.3,0.58
					c1.69,0.39,3.22,0.99,4.57,1.81c0.39-0.19,0.8-0.36,1.23-0.51l0.8-0.36c0.44-0.15,0.85-0.31,1.23-0.51
					c0.24-0.1,0.59-0.22,1.05-0.36c0.46-0.14,0.94-0.29,1.45-0.43c0.51-0.15,1-0.27,1.49-0.36c0.48-0.1,0.87-0.15,1.16-0.15
					c1.06,0,1.87,0.3,2.43,0.91c0.56,0.61,0.83,1.25,0.83,1.92c0,0.44-0.18,0.82-0.54,1.16c-0.36,0.34-0.96,0.51-1.78,0.51h-6.96
					c1.11,1.06,1.97,2.23,2.58,3.48c0.6,1.26,0.91,2.64,0.91,4.14c0,1.94-0.47,3.64-1.42,5.12c-0.94,1.48-2.15,2.71-3.63,3.7
					c-1.48,0.99-3.16,1.74-5.04,2.25c-1.89,0.51-3.77,0.76-5.66,0.76c-0.68,0-1.25-0.01-1.71-0.04c-0.46-0.02-0.83-0.06-1.12-0.11
					c-0.82,0.1-1.48,0.42-1.96,0.98c-0.48,0.56-0.75,1.17-0.8,1.85c0.05,0.58,0.34,1.12,0.87,1.63c0.53,0.51,1.45,0.81,2.76,0.91
					l5.3,0.51c1.98,0.19,3.74,0.59,5.26,1.2c1.52,0.61,2.79,1.34,3.81,2.21c1.02,0.87,1.79,1.84,2.32,2.9
					c0.53,1.06,0.8,2.15,0.8,3.26c0,1.26-0.33,2.48-0.98,3.66s-1.66,2.24-3.01,3.16c-1.36,0.92-3.07,1.67-5.15,2.25
					c-2.08,0.58-4.52,0.87-7.33,0.87c-1.94,0-3.82-0.18-5.66-0.54c-1.84-0.36-3.48-0.9-4.93-1.6c-1.45-0.7-2.61-1.58-3.48-2.65
					C524.12,403.27,523.68,402.04,523.68,400.64z M539.79,407.17c1.64,0,3.05-0.18,4.21-0.54c1.16-0.36,2.12-0.86,2.87-1.49
					c0.75-0.63,1.31-1.33,1.67-2.1c0.36-0.77,0.54-1.57,0.54-2.39c0-1.4-0.46-2.7-1.38-3.88c-0.92-1.18-2.15-1.87-3.7-2.07h-0.44
					c-1.84,0-3.57,0.04-5.19,0.11c-1.62,0.07-3.05,0.3-4.28,0.69c-1.23,0.39-2.2,0.98-2.9,1.78c-0.7,0.8-1.05,1.92-1.05,3.37
					c0,1.11,0.28,2.08,0.83,2.9c0.56,0.82,1.28,1.5,2.18,2.03c0.89,0.53,1.92,0.93,3.08,1.2
					C537.39,407.03,538.58,407.17,539.79,407.17z M531.88,371.98c0,1.4,0.18,2.71,0.54,3.92c0.36,1.21,0.88,2.26,1.56,3.16
					c0.68,0.9,1.52,1.6,2.54,2.1s2.18,0.76,3.48,0.76c1.26,0,2.38-0.27,3.37-0.8c0.99-0.53,1.83-1.26,2.5-2.18
					c0.68-0.92,1.18-1.97,1.52-3.16c0.34-1.18,0.51-2.46,0.51-3.81c0-1.35-0.17-2.62-0.51-3.81c-0.34-1.18-0.85-2.22-1.52-3.12
					c-0.68-0.89-1.51-1.6-2.5-2.1c-0.99-0.51-2.12-0.76-3.37-0.76c-2.66,0-4.68,0.93-6.06,2.79
					C532.57,366.84,531.88,369.17,531.88,371.98z"/>
				<path class="st1" d="M564.31,388.74c0-1.6,0.42-3.02,1.27-4.28c0.85-1.26,1.95-2.37,3.3-3.34c1.35-0.97,2.89-1.81,4.61-2.54
					c1.72-0.73,3.46-1.33,5.22-1.81c1.76-0.48,3.47-0.89,5.12-1.23c1.64-0.34,3.07-0.6,4.28-0.8v-5.22c0-2.37-0.5-4.2-1.49-5.48
					c-0.99-1.28-2.53-1.92-4.61-1.92c-1.84,0-3.18,0.15-4.03,0.44c-0.85,0.29-1.4,0.68-1.67,1.16c-0.27,0.48-0.4,0.99-0.4,1.52
					c0,0.15,0.02,0.44,0.07,0.87c0.05,0.44,0.07,1.06,0.07,1.89c0,1.31-0.51,2.29-1.52,2.94c-1.02,0.65-2.08,0.98-3.19,0.98
					c-1.4,0-2.55-0.37-3.45-1.12c-0.9-0.75-1.34-1.68-1.34-2.79c0-0.82,0.27-1.67,0.8-2.54c0.53-0.87,1.38-1.69,2.54-2.47
					c1.16-0.77,2.66-1.4,4.5-1.89c1.84-0.48,4.06-0.73,6.67-0.73c1.69,0,3.41,0.18,5.15,0.54c1.74,0.36,3.31,0.93,4.72,1.71
					c1.4,0.77,2.55,1.79,3.45,3.05c0.89,1.26,1.34,2.76,1.34,4.5v23c0,0.58,0.11,1.21,0.33,1.89c0.22,0.68,0.59,1.02,1.12,1.02v0.58
					c-0.39,0.24-0.88,0.45-1.49,0.62c-0.61,0.17-1.1,0.25-1.49,0.25c-2.03,0-3.48-0.29-4.35-0.87c-0.87-0.58-1.4-1.52-1.6-2.83
					c-1.69,1.26-3.41,2.19-5.15,2.79c-1.74,0.6-3.92,0.91-6.53,0.91c-1.55,0-3.06-0.17-4.54-0.51c-1.48-0.34-2.78-0.86-3.92-1.56
					c-1.14-0.7-2.06-1.61-2.76-2.72C564.66,391.62,564.31,390.29,564.31,388.74z M588.11,390.41v-13.42
					c-1.5,0.19-3.18,0.54-5.04,1.05s-3.62,1.22-5.26,2.14c-1.65,0.92-3.01,2.07-4.1,3.45c-1.09,1.38-1.63,3.04-1.63,4.97
					c0,2.08,0.59,3.57,1.78,4.46c1.18,0.9,2.58,1.34,4.17,1.34c2.03,0,3.81-0.3,5.33-0.91
					C584.88,392.88,586.47,391.86,588.11,390.41z"/>
				<path class="st1" d="M603.64,395.27c0-0.44,0.63-0.77,1.89-1.02c0.97-0.1,1.72-0.41,2.25-0.94c0.53-0.53,0.8-1.5,0.8-2.9v-21.48
					c0-1.5-0.1-2.25-0.29-2.25c-0.29,0-0.77,0.27-1.45,0.8c-0.39,0.24-0.77,0.36-1.16,0.36c-0.39,0-0.77-0.07-1.16-0.22
					c-0.39-0.14-0.61-0.34-0.65-0.58c0-0.05,0.29-0.29,0.87-0.73l7.98-5.59c0.24-0.15,0.65-0.22,1.23-0.22
					c0.68,0,1.22,0.14,1.63,0.44c0.41,0.29,0.62,0.68,0.62,1.16v3.92c0.82-0.82,1.69-1.62,2.61-2.39c0.92-0.77,1.87-1.48,2.87-2.1
					c0.99-0.63,2.03-1.12,3.12-1.49c1.09-0.36,2.21-0.54,3.37-0.54c1.89,0,3.36,0.35,4.43,1.05c1.06,0.7,1.6,1.54,1.6,2.5
					c-0.1,1.06-0.62,1.92-1.56,2.58s-2.02,0.98-3.23,0.98c-0.58,0-1.28-0.12-2.1-0.36c-0.82-0.24-1.38-0.65-1.67-1.23
					c-0.58-0.58-1.23-0.87-1.96-0.87c-0.1,0-0.19,0-0.29,0c-0.68,0.05-1.37,0.32-2.07,0.8c-0.7,0.48-1.38,1.05-2.03,1.71
					c-0.65,0.65-1.27,1.32-1.85,2c-0.58,0.68-1.09,1.23-1.52,1.67l0.29-0.07v20.17c0,1.45,0.28,2.43,0.83,2.94
					c0.56,0.51,1.34,0.81,2.36,0.91h-0.07c1.35,0,2.03,0.34,2.03,1.02c0,0.68-0.68,1.02-2.03,1.02h-13.64
					C604.32,396.28,603.64,395.94,603.64,395.27z"/>
			</g>
		</g>
		<path class="st1" d="M408.23,256.08c-0.34-0.33-0.69-0.62-1.05-0.9c0.29-1.7,0.76-5.91-0.44-11.02
			c-1.36-5.82-5.25-13.87-15.89-19.78c2.48-3,3.66-5.91,3.53-8.72c-0.31-6.73-7.92-10.44-10.53-11.52
			c0.12-5.39-2.32-11.36-6.65-16.14c-3.88-4.28-9.17-7.52-15.29-9.37l-1.87-0.56l0.32,1.92c0.12,0.71,2.68,17.38-17.45,23.64
			c-20.24,6.29-17.25,23.57-16.47,26.92c-4.08,1.21-7.91,2.96-10.4,6.32c-1.69,2.28-2.68,5.24-2.96,8.81
			c-0.21,2.8,0.04,5.59,0.71,8.3c-1.06,0.53-2.04,1.23-2.94,2.1c-3.66,3.56-4.71,9.31-2.62,14.3l17.79,42.49h67.02l17.79-42.49
			C412.95,265.38,411.89,259.63,408.23,256.08z M343.65,205.94c18.03-5.6,19.41-19.36,19.27-24.44c4.99,1.78,9.28,4.56,12.51,8.12
			c4.14,4.57,6.38,10.27,5.99,15.24c-0.25,3.17-2.08,6.44-5.02,8.97c-2.84,2.45-6.32,4.03-9.65,5.37
			c-10.32,4.15-21.39,6.77-32.1,9.3c-1.45,0.34-2.91,0.69-4.36,1.04c-0.5,0.12-1,0.24-1.5,0.37
			C328.03,226.91,325.2,211.67,343.65,205.94z M315.52,245.86c0.24-3.11,1.07-5.65,2.49-7.56c2.78-3.75,7.66-5.17,12.84-6.41
			c1.45-0.35,2.9-0.69,4.35-1.03c10.8-2.55,21.96-5.19,32.45-9.41c3.53-1.42,7.22-3.1,10.33-5.78c2.99-2.57,4.93-5.72,5.62-9
			c2.63,1.19,8.17,4.27,8.39,9.11c0.22,4.86-4.88,13.05-30.36,24.52l0.99,2.21c12.58-5.66,21.45-11.11,26.57-16.29
			c16.51,8.87,16.35,22.87,15.76,27.6c-3.33-1.53-7.39-1.42-11.96,0.36c-3.17,1.23-5.8,2.96-7.12,3.91c-4-4.37-8.36-6.57-12.99-6.52
			c-6.37,0.06-11.33,4.35-13.31,6.37c-1.99-2.02-6.95-6.31-13.31-6.37c-4.63-0.07-8.99,2.15-12.99,6.52
			c-1.33-0.95-3.95-2.67-7.12-3.91c-3.72-1.45-7.11-1.78-10.03-1.04C315.54,250.75,315.33,248.31,315.52,245.86z M358.35,310.45
			h-13.98l-9.64-50.37c3.58-4.04,7.4-6.11,11.39-6.11c0.03,0,0.06,0,0.09,0c6.12,0.05,10.96,4.91,12.14,6.2V310.45z M360.77,260.17
			c1.17-1.29,5.99-6.14,12.12-6.2c0.04,0,0.07,0,0.11,0c3.99,0,7.81,2.07,11.39,6.11l-9.68,50.37h-13.94V260.17z M310.49,269.44
			c-1.71-4.09-0.88-8.76,2.08-11.63c6.76-6.57,17.7,1.05,19.75,2.59l9.58,50.05h-14.25L310.49,269.44z M408.62,269.44l-17.17,41.01
			h-14.29l9.62-50.05c2.06-1.54,13-9.16,19.75-2.59C409.5,260.68,410.33,265.36,408.62,269.44z"/>
		<g>
			<rect x="85.81" y="442.06" class="st1" width="184.99" height="2.42"/>
		</g>
		<g>
			<rect x="85.81" y="310.45" class="st1" width="184.99" height="2.42"/>
		</g>
		<g>
			<rect x="449.2" y="442.06" class="st1" width="184.99" height="2.42"/>
		</g>
		<g>
			<rect x="449.2" y="310.45" class="st1" width="184.99" height="2.42"/>
		</g>
	</g>
</g>
</svg>
