<?xml version="1.0" encoding="utf-8"?>
<!-- Generator: Adobe Adobe Illustrator 29.2.0, SVG Export Plug-In . SVG Version: 6.00 Build 0)  -->
<svg version="1.1" id="Diseño" xmlns="http://www.w3.org/2000/svg" xmlns:xlink="http://www.w3.org/1999/xlink" x="0px" y="0px"
	 width="720px" height="720px" viewBox="0 0 720 720" style="enable-background:new 0 0 720 720;" xml:space="preserve">
<style type="text/css">
	.st0{fill:#F6DDD6;}
	.st1{fill:#EE7057;}
</style>
<g>
	<circle class="st0" cx="360" cy="360" r="321.95"/>
	<g>
		<path class="st1" d="M360,644.16c-75.9,0-147.26-29.56-200.93-83.23C105.4,507.26,75.85,435.9,75.85,360
			s29.56-147.26,83.23-200.93C212.74,105.4,284.1,75.85,360,75.85s147.26,29.56,200.93,83.23C614.6,212.74,644.16,284.1,644.16,360
			s-29.56,147.26-83.23,200.93C507.26,614.6,435.9,644.16,360,644.16z M360,78.85c-75.1,0-145.7,29.25-198.81,82.35
			C108.09,214.3,78.85,284.9,78.85,360c0,75.1,29.25,145.7,82.35,198.81c53.1,53.1,123.71,82.35,198.81,82.35
			c75.1,0,145.7-29.25,198.81-82.35c53.1-53.1,82.35-123.71,82.35-198.81c0-75.1-29.25-145.7-82.35-198.81
			C505.7,108.09,435.1,78.85,360,78.85z"/>
	</g>
	<g>
		<path class="st1" d="M196.77,339.11c0-1.05,1.05-1.57,3.15-1.57h-0.11c1.27-0.07,2.4-0.2,3.37-0.39c0.97-0.18,1.82-0.52,2.53-1.01
			c0.71-0.48,1.25-1.22,1.63-2.19c0.37-0.97,0.56-2.29,0.56-3.94v-61.18c0-1.65-0.19-2.98-0.56-3.99c-0.37-1.01-0.92-1.8-1.63-2.36
			c-0.71-0.56-1.56-0.94-2.53-1.12c-0.97-0.19-2.1-0.32-3.37-0.39h0.11c-2.1,0-3.15-0.52-3.15-1.57c0-1.05,1.05-1.57,3.15-1.57
			h40.49c3.15,0,6.45,0.32,9.9,0.96c3.45,0.64,6.58,1.71,9.39,3.2c2.81,1.5,5.13,3.49,6.97,5.96c1.84,2.47,2.75,5.55,2.75,9.22
			c0,2.55-0.52,4.82-1.57,6.8c-1.05,1.99-2.44,3.73-4.16,5.23c-1.72,1.5-3.73,2.78-6.01,3.82c-2.29,1.05-4.67,1.95-7.14,2.7
			c3.22,0.67,6.2,1.59,8.94,2.75c2.73,1.16,5.12,2.63,7.14,4.39c2.02,1.76,3.62,3.88,4.78,6.35c1.16,2.47,1.74,5.36,1.74,8.66
			c0,3.9-0.9,7.29-2.7,10.18c-1.8,2.89-4.16,5.27-7.08,7.14c-2.92,1.87-6.2,3.26-9.84,4.16c-3.64,0.9-7.29,1.35-10.96,1.35h-42.62
			C197.82,340.69,196.77,340.16,196.77,339.11z M219.71,294.92h19.45c2.32,0,4.57-0.49,6.75-1.46c2.17-0.97,4.1-2.29,5.79-3.94
			c1.69-1.65,3.04-3.58,4.05-5.79c1.01-2.21,1.52-4.59,1.52-7.14c0-2.7-0.52-5.02-1.57-6.97c-1.05-1.95-2.44-3.56-4.16-4.84
			c-1.73-1.27-3.67-2.23-5.85-2.87c-2.18-0.64-4.35-0.96-6.52-0.96h-19.45V294.92z M219.71,298.07V330c0,1.65,0.18,2.96,0.56,3.94
			c0.37,0.97,0.92,1.72,1.63,2.25c0.71,0.52,1.56,0.88,2.53,1.07c0.97,0.19,2.06,0.28,3.26,0.28h12.48c2.7,0,5.32-0.45,7.87-1.35
			c2.55-0.9,4.8-2.19,6.75-3.88c1.95-1.69,3.5-3.75,4.67-6.18c1.16-2.44,1.74-5.19,1.74-8.27c0-2.92-0.54-5.6-1.63-8.04
			c-1.09-2.44-2.57-4.54-4.44-6.3c-1.87-1.76-4.03-3.11-6.47-4.05c-2.44-0.94-4.97-1.4-7.59-1.4H219.71z"/>
		<path class="st1" d="M284.26,339.11c0-0.67,0.97-1.2,2.92-1.57c1.5-0.15,2.66-0.64,3.49-1.46s1.24-2.32,1.24-4.5v-33.29
			c0-2.32-0.15-3.49-0.45-3.49c-0.45,0-1.2,0.41-2.25,1.24c-0.6,0.37-1.2,0.56-1.8,0.56c-0.6,0-1.2-0.11-1.8-0.34
			c-0.6-0.22-0.94-0.52-1.01-0.9c0-0.07,0.45-0.45,1.35-1.12l12.37-8.66c0.37-0.22,1.01-0.34,1.91-0.34c1.05,0,1.89,0.22,2.53,0.67
			s0.96,1.05,0.96,1.8v6.07c1.27-1.27,2.62-2.51,4.05-3.71c1.42-1.2,2.9-2.28,4.44-3.26c1.53-0.97,3.15-1.74,4.84-2.3
			c1.69-0.56,3.43-0.84,5.23-0.84c2.93,0,5.21,0.54,6.86,1.63c1.65,1.09,2.47,2.38,2.47,3.88c-0.15,1.65-0.96,2.98-2.42,3.99
			c-1.46,1.01-3.13,1.52-5.01,1.52c-0.9,0-1.99-0.19-3.26-0.56c-1.27-0.37-2.14-1.01-2.59-1.91c-0.9-0.9-1.91-1.35-3.04-1.35
			c-0.15,0-0.3,0-0.45,0c-1.05,0.08-2.12,0.49-3.2,1.24c-1.09,0.75-2.14,1.63-3.15,2.64c-1.01,1.01-1.97,2.04-2.87,3.09
			c-0.9,1.05-1.69,1.91-2.36,2.59l0.45-0.11v31.26c0,2.25,0.43,3.77,1.29,4.55c0.86,0.79,2.08,1.26,3.66,1.41h-0.11
			c2.1,0,3.15,0.52,3.15,1.57s-1.05,1.57-3.15,1.57h-21.14C285.31,340.69,284.26,340.16,284.26,339.11z"/>
		<path class="st1" d="M338.35,313.81c0-4.05,0.67-7.82,2.02-11.3c1.35-3.49,3.28-6.5,5.79-9.05c2.51-2.55,5.57-4.56,9.17-6.02
			c3.6-1.46,7.69-2.19,12.26-2.19c4.42,0,8.32,0.66,11.69,1.97c3.38,1.31,6.2,3.15,8.49,5.51c2.29,2.36,4.01,5.14,5.17,8.32
			c1.16,3.19,1.74,6.69,1.74,10.52h-44.08v2.25c0,2.92,0.28,5.9,0.84,8.94c0.56,3.04,1.52,5.81,2.87,8.32
			c1.35,2.51,3.11,4.56,5.29,6.13c2.18,1.57,4.84,2.36,7.98,2.36c2.25,0,4.52-0.41,6.8-1.24c2.29-0.82,4.39-1.97,6.3-3.43
			c1.91-1.46,3.58-3.15,5.01-5.06c1.42-1.91,2.4-3.95,2.92-6.13l5.85,1.69c-1.87,5.1-5.12,9.24-9.73,12.42
			c-4.61,3.19-10.33,4.78-17.15,4.78c-4.5,0-8.57-0.75-12.2-2.25s-6.71-3.54-9.22-6.13c-2.51-2.59-4.44-5.62-5.79-9.11
			S338.35,317.86,338.35,313.81z M383,308.3c0-2.4-0.32-4.8-0.96-7.2s-1.57-4.56-2.81-6.47c-1.24-1.91-2.83-3.45-4.78-4.61
			c-1.95-1.16-4.24-1.74-6.86-1.74c-2.63,0-4.91,0.58-6.86,1.74c-1.95,1.16-3.6,2.68-4.95,4.56c-1.35,1.87-2.42,4.01-3.21,6.41
			c-0.79,2.4-1.33,4.84-1.63,7.31H383z"/>
		<path class="st1" d="M405.04,328.99c0-2.47,0.65-4.69,1.97-6.64c1.31-1.95,3.02-3.67,5.12-5.17c2.1-1.5,4.48-2.81,7.14-3.94
			s5.36-2.06,8.1-2.81c2.74-0.75,5.38-1.39,7.93-1.91c2.55-0.52,4.76-0.94,6.63-1.24v-8.1c0-3.67-0.77-6.5-2.3-8.49
			c-1.54-1.99-3.92-2.98-7.14-2.98c-2.85,0-4.93,0.22-6.24,0.67c-1.31,0.45-2.17,1.05-2.59,1.8c-0.41,0.75-0.62,1.54-0.62,2.36
			c0,0.22,0.03,0.67,0.11,1.35c0.07,0.67,0.11,1.65,0.11,2.92c0,2.02-0.79,3.54-2.36,4.55c-1.57,1.01-3.23,1.52-4.95,1.52
			c-2.17,0-3.95-0.58-5.34-1.74c-1.39-1.16-2.08-2.6-2.08-4.33c0-1.27,0.41-2.59,1.24-3.94c0.82-1.35,2.14-2.62,3.94-3.82
			c1.8-1.2,4.12-2.17,6.97-2.92c2.85-0.75,6.3-1.12,10.35-1.12c2.62,0,5.29,0.28,7.98,0.84c2.7,0.56,5.14,1.44,7.31,2.64
			c2.17,1.2,3.96,2.78,5.34,4.72c1.39,1.95,2.08,4.28,2.08,6.97v35.65c0,0.9,0.17,1.87,0.5,2.92s0.92,1.57,1.74,1.57v0.9
			c-0.6,0.37-1.37,0.69-2.31,0.96c-0.94,0.26-1.71,0.39-2.3,0.39c-3.15,0-5.4-0.45-6.75-1.35s-2.17-2.36-2.47-4.39
			c-2.62,1.95-5.29,3.39-7.98,4.33c-2.7,0.93-6.07,1.4-10.12,1.4c-2.4,0-4.74-0.26-7.03-0.79c-2.29-0.52-4.31-1.33-6.07-2.42
			c-1.76-1.08-3.19-2.49-4.27-4.22C405.58,333.45,405.04,331.39,405.04,328.99z M441.93,331.58v-20.81
			c-2.32,0.3-4.93,0.84-7.81,1.63c-2.89,0.79-5.61,1.89-8.15,3.32c-2.55,1.42-4.67,3.21-6.35,5.34c-1.69,2.14-2.53,4.71-2.53,7.7
			c0,3.22,0.92,5.53,2.75,6.91c1.84,1.39,3.99,2.08,6.47,2.08c3.15,0,5.9-0.47,8.27-1.41C436.92,335.42,439.38,333.83,441.93,331.58
			z"/>
		<path class="st1" d="M492.2,284.68c5.85,0,10.91,1.57,15.18,4.72v-23.39c0-2.32-0.15-3.49-0.45-3.49c-0.45,0-1.2,0.41-2.25,1.24
			c-0.6,0.37-1.24,0.56-1.91,0.56c-0.6,0-1.2-0.11-1.8-0.34c-0.6-0.22-0.94-0.52-1.01-0.9c0-0.07,0.45-0.45,1.35-1.13l12.48-8.66
			c0.37-0.22,1.01-0.34,1.91-0.34c1.05,0,1.89,0.22,2.53,0.67c0.64,0.45,0.96,1.05,0.96,1.8v74.67c0,1.95,0.37,3.28,1.12,3.99
			c0.75,0.71,1.95,1.11,3.6,1.18h-0.11c1.65,0,2.51,0.34,2.59,1.01l0.11,0.34c0,0.3-0.56,0.64-1.69,1.01l-12.37,4.05
			c-0.6,0.15-1.16,0.22-1.69,0.22c-2.25,0-3.38-0.79-3.38-2.36v-0.67c-4.27,3.15-9.33,4.72-15.18,4.72c-3.3,0-6.54-0.62-9.73-1.85
			c-3.19-1.24-6.02-3.09-8.49-5.57c-2.47-2.47-4.48-5.55-6.01-9.22c-1.54-3.67-2.31-7.95-2.31-12.82c0-4.87,0.77-9.15,2.31-12.82
			c1.53-3.67,3.54-6.75,6.01-9.22c2.47-2.47,5.31-4.33,8.49-5.56C485.65,285.3,488.89,284.68,492.2,284.68z M507.38,330.57v-32.61
			h0.22c-1.72-3.37-3.77-5.87-6.13-7.48c-2.36-1.61-4.74-2.42-7.14-2.42c-2.1,0-4.14,0.54-6.13,1.63c-1.99,1.09-3.77,2.7-5.34,4.84
			c-1.57,2.14-2.83,4.84-3.77,8.1c-0.94,3.26-1.4,7.1-1.4,11.53c0,4.27,0.47,8.04,1.4,11.3c0.94,3.26,2.19,5.96,3.77,8.1
			c1.57,2.14,3.35,3.75,5.34,4.84c1.99,1.09,4.03,1.63,6.13,1.63c2.32,0,4.65-0.79,6.97-2.36
			C503.63,336.07,505.65,333.71,507.38,330.57z"/>
		<path class="st1" d="M118.62,382.99c0-2.55,0.56-4.91,1.69-7.08s2.42-4.09,3.88-5.73s2.88-3.02,4.27-4.11
			c1.39-1.09,2.34-1.78,2.87-2.08l0.45-0.34c0.22-0.15,0.5-0.28,0.84-0.39c0.34-0.11,0.84-0.17,1.52-0.17
			c1.87,0,2.81,0.34,2.81,1.01c0,0.15-0.06,0.3-0.17,0.45c-0.11,0.15-0.58,0.53-1.4,1.12h0.11c-0.53,0.45-1.16,1.11-1.91,1.97
			c-0.75,0.86-1.46,1.84-2.14,2.92c-0.68,1.09-1.26,2.29-1.74,3.6c-0.49,1.31-0.73,2.68-0.73,4.11c0,1.8,0.19,2.81,0.56,3.04
			c0.3,0.07,0.82,0.24,1.58,0.51c0.75,0.26,1.52,0.65,2.3,1.18c0.79,0.52,1.48,1.18,2.08,1.97c0.6,0.79,0.9,1.74,0.9,2.87
			c0,1.28-0.64,2.42-1.91,3.43c-1.28,1.01-3.08,1.52-5.4,1.52c-1.05,0-2.17-0.2-3.37-0.62c-1.2-0.41-2.32-1.03-3.37-1.86
			c-1.05-0.82-1.93-1.85-2.64-3.09C118.97,385.98,118.62,384.57,118.62,382.99z"/>
		<path class="st1" d="M168.66,402.11v32.61c0,2.4,0.41,4.07,1.24,5c0.82,0.94,2.02,1.48,3.6,1.63c1.95,0.37,2.92,0.9,2.92,1.57
			c0,1.05-1.05,1.57-3.15,1.57h-20.81c-2.1,0-3.15-0.52-3.15-1.57c0-0.75,0.94-1.27,2.81-1.57c1.57-0.15,2.76-0.69,3.54-1.63
			c0.79-0.93,1.18-2.6,1.18-5v-32.61c0-2.32-0.15-3.49-0.45-3.49c-0.37,0-1.31,0.56-2.81,1.69h0.22c-0.07,0.07-0.56,0.11-1.46,0.11
			c-0.37,0-0.9-0.11-1.57-0.34c-0.67-0.22-1.09-0.52-1.24-0.9c0.07-0.22,0.56-0.6,1.46-1.12h-0.11c2.02-1.42,4.07-2.85,6.13-4.28
			c2.06-1.42,4.14-2.88,6.24-4.39c0.37-0.22,1.01-0.34,1.91-0.34c1.05,0,1.89,0.22,2.53,0.67c0.64,0.45,0.96,1.05,0.96,1.8v4.84
			c2.77-2.17,5.68-3.97,8.72-5.4c3.04-1.42,6.58-2.14,10.63-2.14c2.55,0,4.91,0.36,7.09,1.07c2.17,0.71,4.07,1.78,5.68,3.2
			c1.61,1.43,2.87,3.13,3.77,5.12c0.9,1.99,1.35,4.29,1.35,6.92v29.58c0,2.4,0.37,4.07,1.12,5c0.75,0.94,1.91,1.48,3.49,1.63
			c1.95,0.37,2.92,0.9,2.92,1.57c0,1.05-1.05,1.57-3.15,1.57h-20.81c-2.1,0-3.15-0.52-3.15-1.57c0-0.67,0.97-1.2,2.92-1.57
			c1.58-0.15,2.77-0.69,3.6-1.63c0.82-0.93,1.24-2.6,1.24-5v-29.91c0-3.37-0.6-6.02-1.8-7.93c-1.2-1.91-3.34-2.87-6.41-2.87
			c-3.45,0-6.46,0.73-9.05,2.19C174.22,397.67,171.51,399.64,168.66,402.11z"/>
		<path class="st1" d="M221.96,390.19c0.52-0.52,1.16-1.2,1.91-2.02c0.75-0.82,1.46-1.76,2.14-2.81c0.67-1.05,1.25-2.23,1.74-3.54
			c0.49-1.31,0.73-2.68,0.73-4.11c0-0.82-0.13-1.55-0.39-2.19c-0.26-0.63-0.58-1.03-0.96-1.18l-0.11-0.11
			c-0.52-0.22-1.12-0.49-1.8-0.79s-1.31-0.69-1.91-1.18c-0.6-0.49-1.12-1.07-1.57-1.74c-0.45-0.67-0.67-1.5-0.67-2.47
			c0-1.27,0.64-2.42,1.91-3.43s3.07-1.52,5.4-1.52c1.05,0,2.17,0.21,3.37,0.62c1.2,0.41,2.32,1.03,3.38,1.85
			c1.05,0.83,1.93,1.86,2.64,3.09c0.71,1.24,1.07,2.64,1.07,4.22c0,2.47-0.54,4.78-1.63,6.91c-1.09,2.14-2.34,4.05-3.77,5.74
			c-1.43,1.69-2.83,3.05-4.22,4.1c-1.39,1.05-2.38,1.76-2.98,2.14l-0.45,0.45c-0.22,0.15-0.49,0.28-0.79,0.39
			c-0.3,0.11-0.86,0.17-1.69,0.17c-1.87,0-2.81-0.34-2.81-1.01c0-0.15,0.06-0.3,0.17-0.45c0.11-0.15,0.58-0.52,1.4-1.12H221.96z"/>
		<path class="st1" d="M282.8,424.04c0.15-0.07,0.56-0.11,1.24-0.11c1.2,0,1.99,0.19,2.36,0.56c1.8,2.47,3.71,4.86,5.74,7.14
			c2.02,2.29,4.2,4.27,6.52,5.96c2.32,1.69,4.82,3.04,7.48,4.05s5.53,1.52,8.6,1.52c2.7,0,5.21-0.3,7.53-0.9
			c2.32-0.6,4.31-1.57,5.96-2.92c1.65-1.35,2.94-3.13,3.88-5.34c0.94-2.21,1.41-4.93,1.41-8.15c0-3.22-0.64-5.92-1.91-8.1
			c-1.28-2.17-2.98-3.99-5.12-5.45c-2.14-1.46-4.57-2.68-7.31-3.65c-2.74-0.97-5.57-1.91-8.49-2.81c-3.45-1.05-6.88-2.19-10.29-3.43
			c-3.41-1.24-6.46-2.75-9.17-4.55c-2.7-1.8-4.87-4.03-6.52-6.69s-2.47-5.94-2.47-9.84c0-3.52,0.71-6.63,2.14-9.33
			c1.42-2.7,3.32-4.97,5.68-6.8c2.36-1.84,5.1-3.22,8.21-4.16c3.11-0.94,6.39-1.41,9.84-1.41c3.07,0,5.83,0.26,8.27,0.79
			c2.43,0.53,4.93,1.28,7.48,2.25l4.84-1.57c0.45-0.15,1.01-0.22,1.69-0.22s1.44,0.13,2.3,0.39c0.86,0.26,1.48,0.84,1.86,1.74
			c1.05,2.85,2.14,5.72,3.26,8.6c1.12,2.89,2.25,5.79,3.37,8.72l0.22,0.56c0,0.07-0.6,0.41-1.8,1.01h0.11
			c-0.15,0.07-0.56,0.11-1.24,0.11c-1.2,0-1.99-0.19-2.36-0.56c-1.8-2.47-3.71-4.85-5.73-7.14c-2.02-2.29-4.2-4.27-6.52-5.96
			c-2.33-1.69-4.8-3.04-7.42-4.05c-2.62-1.01-5.43-1.52-8.43-1.52c-2.32,0-4.46,0.24-6.41,0.73c-1.95,0.49-3.64,1.29-5.06,2.42
			c-1.43,1.12-2.55,2.6-3.37,4.44c-0.83,1.84-1.24,4.14-1.24,6.92c0,3.3,0.65,6.03,1.97,8.21c1.31,2.18,3.05,4.01,5.23,5.51
			c2.17,1.5,4.67,2.76,7.48,3.77c2.81,1.01,5.72,1.97,8.72,2.87c3.45,1.05,6.86,2.15,10.24,3.32c3.37,1.16,6.37,2.64,9,4.44
			c2.62,1.8,4.76,3.99,6.41,6.58c1.65,2.59,2.47,5.79,2.47,9.62c0,4.05-0.73,7.59-2.19,10.63c-1.46,3.04-3.47,5.6-6.02,7.7
			c-2.55,2.1-5.55,3.67-9,4.72c-3.45,1.05-7.12,1.57-11.02,1.57h-1.12c-2.85,0-5.45-0.22-7.82-0.67c-2.36-0.45-4.89-1.2-7.59-2.25
			l-4.84,1.57c-0.45,0.15-1.01,0.22-1.69,0.22s-1.44-0.13-2.31-0.39c-0.86-0.26-1.48-0.84-1.86-1.74c-1.05-2.85-2.14-5.71-3.26-8.6
			c-1.12-2.88-2.25-5.79-3.37-8.72l-0.22-0.56c0-0.07,0.6-0.41,1.8-1.01H282.8z"/>
		<path class="st1" d="M399.3,434.5v-32.39c0-2.32-0.15-3.49-0.45-3.49c-0.38,0-1.31,0.56-2.81,1.69h0.22
			c-0.07,0.07-0.6,0.11-1.57,0.11c-0.37,0-0.9-0.11-1.57-0.34c-0.67-0.22-1.09-0.52-1.24-0.9c0.07-0.22,0.56-0.6,1.46-1.12h-0.11
			c2.1-1.42,4.18-2.85,6.24-4.28c2.06-1.42,4.14-2.88,6.24-4.39c0.37-0.22,1.01-0.34,1.91-0.34c1.05,0,1.89,0.22,2.53,0.67
			c0.64,0.45,0.96,1.05,0.96,1.8v42.4c0,4.65,1.72,7.08,5.17,7.31c1.65,0.37,2.47,0.82,2.47,1.35c0,0.9-0.97,1.35-2.92,1.35h0.11
			c-0.9,0.07-1.84,0.13-2.81,0.17c-0.97,0.04-1.99,0.13-3.04,0.28c-1.05,0.07-2.06,0.13-3.04,0.17c-0.97,0.03-1.95,0.09-2.92,0.17
			h-0.45c-1.28,0-2.33-0.22-3.15-0.67c-0.83-0.45-1.24-1.16-1.24-2.14v-2.25c-2.55,1.95-5.42,3.56-8.6,4.84
			c-3.19,1.27-6.47,1.91-9.84,1.91c-5.4,0-9.58-1.24-12.54-3.71c-2.96-2.47-4.44-6-4.44-10.57v-30.03c0-2.32-0.15-3.49-0.45-3.49
			c-0.45,0-1.35,0.56-2.7,1.69h0.22c-0.07,0.07-0.6,0.11-1.57,0.11c-0.37,0-0.9-0.11-1.57-0.34c-0.67-0.22-1.09-0.52-1.24-0.9
			c0.07-0.22,0.56-0.6,1.46-1.12h-0.11l12.37-8.66c0.37-0.22,1.01-0.34,1.91-0.34c1.05,0,1.89,0.22,2.53,0.67
			c0.64,0.45,0.96,1.05,0.96,1.8v37.34c0,1.65,0.07,3.22,0.22,4.72c0.15,1.5,0.49,2.83,1.01,3.99c0.52,1.16,1.29,2.08,2.3,2.76
			c1.01,0.67,2.34,1.01,3.99,1.01c3.15,0,5.96-0.58,8.43-1.74C394.13,438.46,396.68,436.75,399.3,434.5z"/>
		<path class="st1" d="M430.79,451.25c0-3.3,1.69-5.77,5.06-7.42c3.37-1.65,7.76-2.74,13.16-3.26c-4.43-0.45-7.76-1.54-10.01-3.26
			c-2.25-1.72-3.37-3.56-3.37-5.51c0-1.65,0.92-3.19,2.76-4.61c1.84-1.42,4.63-2.43,8.38-3.04c-2.1-0.67-4.09-1.57-5.96-2.7
			c-1.88-1.12-3.51-2.43-4.89-3.94c-1.39-1.5-2.47-3.15-3.26-4.95c-0.79-1.8-1.18-3.71-1.18-5.73c0-3.15,0.71-5.86,2.14-8.15
			c1.42-2.29,3.3-4.18,5.62-5.68c2.32-1.5,4.97-2.6,7.93-3.32c2.96-0.71,5.94-1.07,8.94-1.07c2.85,0,5.58,0.3,8.21,0.9
			c2.62,0.6,4.99,1.54,7.08,2.81c0.6-0.3,1.24-0.56,1.91-0.79l1.24-0.56c0.67-0.22,1.31-0.48,1.91-0.79
			c0.37-0.15,0.92-0.34,1.63-0.56c0.71-0.22,1.46-0.45,2.25-0.67c0.79-0.22,1.56-0.41,2.31-0.56c0.75-0.15,1.35-0.22,1.8-0.22
			c1.65,0,2.9,0.47,3.77,1.41c0.86,0.94,1.29,1.93,1.29,2.98c0,0.67-0.28,1.28-0.84,1.8c-0.56,0.53-1.48,0.79-2.76,0.79H475.1
			c1.72,1.65,3.05,3.45,3.99,5.4c0.94,1.95,1.41,4.09,1.41,6.41c0,3-0.73,5.64-2.19,7.93c-1.46,2.29-3.34,4.2-5.62,5.73
			c-2.29,1.54-4.89,2.7-7.82,3.49c-2.92,0.79-5.85,1.18-8.77,1.18c-1.05,0-1.93-0.02-2.64-0.05c-0.71-0.04-1.29-0.09-1.74-0.17
			c-1.28,0.15-2.29,0.66-3.04,1.52c-0.75,0.86-1.16,1.82-1.24,2.87c0.07,0.9,0.52,1.74,1.35,2.53c0.82,0.79,2.25,1.26,4.27,1.41
			l8.21,0.79c3.07,0.3,5.79,0.92,8.15,1.85c2.36,0.94,4.33,2.08,5.9,3.43c1.57,1.35,2.77,2.85,3.6,4.5
			c0.82,1.65,1.24,3.34,1.24,5.06c0,1.95-0.51,3.84-1.52,5.68c-1.01,1.84-2.57,3.47-4.67,4.89c-2.1,1.42-4.76,2.59-7.99,3.49
			c-3.22,0.9-7.01,1.35-11.36,1.35c-3,0-5.92-0.28-8.77-0.84c-2.85-0.56-5.4-1.39-7.65-2.47c-2.25-1.09-4.05-2.46-5.4-4.11
			S430.79,453.43,430.79,451.25z M455.76,461.38c2.55,0,4.72-0.28,6.52-0.84c1.8-0.56,3.28-1.33,4.44-2.31
			c1.16-0.97,2.02-2.06,2.59-3.26s0.84-2.44,0.84-3.71c0-2.17-0.71-4.18-2.14-6.01c-1.42-1.84-3.34-2.91-5.73-3.21h-0.67
			c-2.85,0-5.53,0.05-8.04,0.17c-2.51,0.11-4.72,0.47-6.63,1.07c-1.91,0.6-3.41,1.52-4.5,2.76c-1.09,1.24-1.63,2.98-1.63,5.23
			c0,1.72,0.43,3.22,1.29,4.5s1.99,2.32,3.37,3.15s2.98,1.44,4.78,1.86C452.04,461.17,453.88,461.38,455.76,461.38z M443.5,406.84
			c0,2.17,0.28,4.2,0.84,6.07c0.56,1.87,1.37,3.51,2.42,4.89c1.05,1.39,2.36,2.47,3.94,3.26c1.57,0.79,3.37,1.18,5.4,1.18
			c1.95,0,3.69-0.41,5.23-1.24c1.53-0.82,2.83-1.95,3.88-3.37c1.05-1.42,1.84-3.05,2.36-4.89c0.52-1.83,0.79-3.8,0.79-5.9
			c0-2.1-0.26-4.07-0.79-5.9c-0.52-1.84-1.31-3.45-2.36-4.84c-1.05-1.39-2.34-2.47-3.88-3.26c-1.54-0.79-3.28-1.18-5.23-1.18
			c-4.12,0-7.25,1.44-9.39,4.33C444.57,398.87,443.5,402.49,443.5,406.84z"/>
		<path class="st1" d="M496.01,432.81c0-2.47,0.65-4.69,1.97-6.64c1.31-1.95,3.02-3.67,5.12-5.17c2.1-1.5,4.48-2.81,7.14-3.94
			c2.66-1.12,5.36-2.06,8.1-2.81c2.74-0.75,5.38-1.39,7.93-1.91c2.55-0.52,4.76-0.94,6.63-1.24v-8.1c0-3.67-0.77-6.5-2.3-8.49
			c-1.54-1.99-3.92-2.98-7.14-2.98c-2.85,0-4.93,0.22-6.24,0.67c-1.31,0.45-2.17,1.05-2.59,1.8c-0.41,0.75-0.62,1.54-0.62,2.36
			c0,0.22,0.03,0.67,0.11,1.35c0.07,0.67,0.11,1.65,0.11,2.92c0,2.02-0.79,3.54-2.36,4.55c-1.57,1.01-3.23,1.52-4.95,1.52
			c-2.17,0-3.95-0.58-5.34-1.74c-1.39-1.16-2.08-2.6-2.08-4.33c0-1.27,0.41-2.59,1.24-3.94c0.82-1.35,2.14-2.62,3.94-3.82
			c1.8-1.2,4.12-2.17,6.97-2.92c2.85-0.75,6.3-1.12,10.35-1.12c2.62,0,5.29,0.28,7.98,0.84c2.7,0.56,5.14,1.44,7.31,2.64
			c2.17,1.2,3.96,2.78,5.34,4.72c1.39,1.95,2.08,4.28,2.08,6.97v35.65c0,0.9,0.17,1.87,0.5,2.92s0.92,1.57,1.74,1.57v0.9
			c-0.6,0.37-1.37,0.69-2.31,0.96c-0.94,0.26-1.71,0.39-2.3,0.39c-3.15,0-5.4-0.45-6.75-1.35c-1.35-0.9-2.17-2.36-2.47-4.39
			c-2.62,1.95-5.29,3.39-7.98,4.33c-2.7,0.93-6.07,1.4-10.12,1.4c-2.4,0-4.74-0.26-7.03-0.79c-2.29-0.52-4.31-1.33-6.07-2.42
			c-1.76-1.08-3.19-2.49-4.27-4.22C496.56,437.27,496.01,435.21,496.01,432.81z M532.9,435.4v-20.81c-2.32,0.3-4.93,0.84-7.81,1.63
			c-2.89,0.79-5.61,1.89-8.15,3.32c-2.55,1.42-4.67,3.21-6.35,5.34c-1.69,2.14-2.53,4.71-2.53,7.7c0,3.22,0.92,5.53,2.75,6.91
			c1.84,1.39,3.99,2.08,6.47,2.08c3.15,0,5.9-0.47,8.27-1.41C527.9,439.24,530.35,437.65,532.9,435.4z"/>
		<path class="st1" d="M556.97,442.93c0-0.67,0.97-1.2,2.92-1.57c1.5-0.15,2.66-0.64,3.49-1.46c0.82-0.82,1.24-2.32,1.24-4.5v-33.29
			c0-2.32-0.15-3.49-0.45-3.49c-0.45,0-1.2,0.41-2.25,1.24c-0.6,0.37-1.2,0.56-1.8,0.56s-1.2-0.11-1.8-0.34
			c-0.6-0.22-0.94-0.52-1.01-0.9c0-0.07,0.45-0.45,1.35-1.12l12.37-8.66c0.37-0.22,1.01-0.34,1.91-0.34c1.05,0,1.89,0.22,2.53,0.67
			c0.64,0.45,0.96,1.05,0.96,1.8v6.07c1.27-1.27,2.62-2.51,4.05-3.71c1.42-1.2,2.9-2.28,4.44-3.26c1.53-0.97,3.15-1.74,4.84-2.3
			c1.69-0.56,3.43-0.84,5.23-0.84c2.93,0,5.21,0.54,6.86,1.63c1.65,1.09,2.47,2.38,2.47,3.88c-0.15,1.65-0.96,2.98-2.42,3.99
			s-3.13,1.52-5.01,1.52c-0.9,0-1.99-0.19-3.26-0.56c-1.27-0.37-2.14-1.01-2.59-1.91c-0.9-0.9-1.91-1.35-3.04-1.35
			c-0.15,0-0.3,0-0.45,0c-1.05,0.08-2.12,0.49-3.2,1.24c-1.09,0.75-2.14,1.63-3.15,2.64c-1.01,1.01-1.97,2.04-2.87,3.09
			c-0.9,1.05-1.69,1.91-2.36,2.59l0.45-0.11v31.26c0,2.25,0.43,3.77,1.29,4.55c0.86,0.79,2.08,1.26,3.66,1.41h-0.11
			c2.1,0,3.15,0.52,3.15,1.57s-1.05,1.57-3.15,1.57h-21.14C558.01,444.51,556.97,443.98,556.97,442.93z"/>
	</g>
	<path class="st1" d="M407.22,186.27c-0.29-0.28-0.58-0.53-0.89-0.78c0.28-1.79,0.66-5.78-0.46-10.57
		c-1.32-5.62-5.04-13.38-15.17-19.13c2.28-2.86,3.37-5.64,3.25-8.33c-0.3-6.52-7.41-10.16-10.16-11.32
		c0.05-5.23-2.33-10.98-6.51-15.59c-3.78-4.18-8.94-7.34-14.92-9.14l-2.31-0.69l0.4,2.38c0.11,0.67,2.53,16.5-16.62,22.45
		c-19.25,5.98-17.04,22.14-16.19,26.07c-3.88,1.18-7.52,2.9-9.92,6.13c-1.67,2.25-2.65,5.17-2.92,8.68
		c-0.2,2.65,0.03,5.29,0.64,7.87c-0.96,0.51-1.86,1.16-2.68,1.96c-3.63,3.53-4.68,9.23-2.61,14.17l17.26,41.23h65.14l17.26-41.23
		C411.9,195.5,410.85,189.8,407.22,186.27z M344.74,138.43c17.07-5.3,18.87-18.11,18.84-23.43c4.57,1.7,8.51,4.3,11.49,7.58
		c3.94,4.34,6.07,9.75,5.7,14.46c-0.23,2.97-1.96,6.04-4.74,8.44c-2.71,2.34-6.04,3.85-9.22,5.13c-9.94,4-20.62,6.52-30.94,8.97
		c-1.4,0.33-2.81,0.66-4.21,1c-0.37,0.09-0.75,0.18-1.12,0.27C329.76,157.38,327.85,143.67,344.74,138.43z M317.82,176.68
		c0.22-2.94,1.01-5.33,2.34-7.12c2.62-3.53,7.27-4.88,12.21-6.07c1.4-0.33,2.8-0.67,4.2-1c10.43-2.47,21.22-5.02,31.37-9.1
		c3.27-1.31,7.01-3.01,10.06-5.64c2.82-2.43,4.68-5.38,5.43-8.48c2.59,1.22,7.35,4.03,7.54,8.34c0.21,4.59-4.67,12.36-29.11,23.36
		l1.23,2.74c12.02-5.41,20.55-10.63,25.56-15.62c15.07,8.2,15.39,20.91,14.89,25.75c-3.21-1.32-7.07-1.16-11.39,0.52
		c-2.91,1.13-5.35,2.69-6.71,3.64c-3.87-4.15-8.07-6.21-12.59-6.19c-6.02,0.06-10.76,3.95-12.85,6.02
		c-2.09-2.07-6.83-5.96-12.85-6.02c-4.47-0.05-8.71,2.04-12.59,6.19c-1.36-0.96-3.8-2.51-6.71-3.64c-3.53-1.37-6.75-1.73-9.56-1.1
		C317.82,181.1,317.65,178.89,317.82,176.68z M358.5,238.67h-12.89l-9.22-48.19c3.36-3.75,6.93-5.67,10.64-5.67
		c0.03,0,0.05,0,0.08,0c5.65,0.04,10.17,4.46,11.39,5.79V238.67z M361.5,190.6c1.23-1.33,5.74-5.74,11.39-5.79c0.03,0,0.05,0,0.08,0
		c3.71,0,7.28,1.92,10.64,5.67l-9.26,48.19H361.5V190.6z M312.94,199.29c-1.6-3.82-0.82-8.19,1.93-10.87
		c6.23-6.06,16.37,0.85,18.54,2.45l9.15,47.8h-13.13L312.94,199.29z M407.06,199.29l-16.49,39.38H377.4l9.19-47.8
		c2.16-1.6,12.29-8.53,18.54-2.45C407.88,191.1,408.66,195.47,407.06,199.29z"/>
	<g>
		<path class="st1" d="M269.36,515.17c1.04,1.37,1.56,3.06,1.56,5.09c0,2.79-1.07,4.95-3.22,6.47c-2.15,1.52-5.28,2.28-9.4,2.28
			h-16.03v-32.24h15.11c3.81,0,6.74,0.74,8.8,2.23c2.06,1.49,3.09,3.54,3.09,6.15c0,1.6-0.37,3.01-1.11,4.24
			c-0.74,1.23-1.75,2.18-3.04,2.86C266.9,512.83,268.31,513.81,269.36,515.17z M248.26,501.47v8.89h8.47c2.09,0,3.69-0.37,4.81-1.13
			c1.12-0.75,1.68-1.85,1.68-3.29c0-1.47-0.56-2.59-1.68-3.34c-1.12-0.75-2.72-1.13-4.81-1.13H248.26z M264.89,519.66
			c0-3.1-2.32-4.65-6.96-4.65h-9.67v9.3h9.67C262.57,524.31,264.89,522.76,264.89,519.66z"/>
		<path class="st1" d="M307.45,521.55h-16.12l-3.18,7.46h-6.17l14.51-32.24h5.89l14.56,32.24h-6.26L307.45,521.55z M305.47,516.85
			l-6.08-14.09l-6.03,14.09H305.47z"/>
		<path class="st1" d="M341.35,515.51l-5.11,5.25v8.24h-5.99v-32.24h5.99v16.53l15.94-16.53h6.72l-13.54,14.42l14.37,17.82h-7
			L341.35,515.51z"/>
		<path class="st1" d="M397.22,523.99v5.02h-24.18v-32.24h23.53v5.02h-17.55v8.38h15.57v4.93h-15.57v8.89H397.22z"/>
		<path class="st1" d="M434.2,529.01l-6.58-9.44c-0.28,0.03-0.69,0.05-1.24,0.05h-7.28v9.4h-5.99v-32.24h13.26
			c2.79,0,5.23,0.46,7.3,1.38c2.07,0.92,3.66,2.24,4.77,3.96c1.11,1.72,1.66,3.76,1.66,6.12c0,2.43-0.59,4.52-1.77,6.26
			s-2.88,3.06-5.09,3.92l7.42,10.59H434.2z M432.04,503.5c-1.35-1.11-3.33-1.66-5.94-1.66h-7v12.85h7c2.61,0,4.59-0.56,5.94-1.68
			c1.35-1.12,2.03-2.71,2.03-4.77C434.06,506.18,433.39,504.6,432.04,503.5z"/>
		<path class="st1" d="M469.43,517.63v11.38h-5.99v-11.28l-12.67-20.96h6.4l9.44,15.71l9.53-15.71h5.89L469.43,517.63z"/>
	</g>
</g>
</svg>
